<svg xmlns="http://www.w3.org/2000/svg" width="1000" height="1000" viewBox="0 0 1000 1000">
  <metadata><?xpacket begin="﻿" id="W5M0MpCehiHzreSzNTczkc9d"?>
<x:xmpmeta xmlns:x="adobe:ns:meta/" x:xmptk="Adobe XMP Core 5.6-c142 79.160924, 2017/07/13-01:06:39        ">
   <rdf:RDF xmlns:rdf="http://www.w3.org/1999/02/22-rdf-syntax-ns#">
      <rdf:Description rdf:about=""/>
   </rdf:RDF>
</x:xmpmeta>
                                                                                                    
                                                                                                    
                                                                                                    
                                                                                                    
                                                                                                    
                                                                                                    
                                                                                                    
                                                                                                    
                                                                                                    
                                                                                                    
                                                                                                    
                                                                                                    
                                                                                                    
                                                                                                    
                                                                                                    
                                                                                                    
                                                                                                    
                                                                                                    
                                                                                                    
                                                                                                    
                           
<?xpacket end="w"?></metadata>
<defs>
    <style>
      .cls-1 {
        fill: none;
        stroke: #fff;
        stroke-width: 4px;
        fill-rule: evenodd;
        opacity: 0.6;
      }
    </style>
  </defs>
  <path class="cls-1" d="M82,534.917s54.493-48.886,73.457-73.523S316.9,252.166,367.553,185.943,498.948,24.4,498.948,24.4s40.141-8.052,44.488-6.213-13.518,13.639-53.8,72.487S353.235,309.486,333.41,403.4c-15.142,71.735-7.52,79.244,34.143,74.559,45.025-5.064,94.747-31.479,136.568-57.99,42.623-27.02,49.661-39.35,49.661-39.35s61.3-84.977,86.908-115.98S754.5,137.273,754.5,137.273,769.911,7.907,808.3.582s71.388,59.025,71.388,59.025,11.162,2.035,12.415,10.355,3.1,32.1,3.1,32.1,6.2,30.846,13.45,48.67S919,172.481,919,172.481s-15.978,8.816-31.038-6.213-18.623-23.818-18.623-23.818a318.257,318.257,0,0,1-24.831,43.493c-15.655,23.029-78.63,113.908-78.63,113.908s-1.68,82.925-2.07,136.69,3.778,132.066,9.312,191.574,6.839,60.857,32.073,127.37,9.311,79.736,9.311,79.736,0.759,3.662-15.519,4.142-22.761-1.035-22.761-1.035-3.239-31.264-22.762-44.528-47.588-39.037-134.5-25.889-158.067,40.1-188.3,48.67-44.488,11.391-44.488,11.391-26.262,40.092-40.35,76.63-44.588,87.372-78.631,94.233-23.186-18.083-16.553-31.066,57.755-84.43,80.7-141.868S401.7,671.336,428.6,613.617,518.606,450,518.606,450s-86.8,58.419-148.984,65.239c-39.108,4.288-103.95-1.791-96.219-39.351s35.4-115.587,52.765-157.4,52.765-106.66,52.765-106.66S187.053,489.2,137.869,518.348,82,534.917,82,534.917ZM755.531,309.171s-8.021,208.009-7.242,244.385,0.256,90.477,6.208,137.726,3.1,52.812,3.1,52.812l-6.208,3.107s-26.644-19.808-66.215-19.675-90.79,5.045-118.98,13.462S459.371,776.063,443.079,784.48s-32.334,5.563-2.069-35.208,72.161-107.31,99.322-142.9,91.819-125.7,116.911-160.507C680.535,413.548,755.531,309.171,755.531,309.171Zm17.589-185.36S796.654,14.947,814.5,36.826s21.727,37.279,21.727,37.279-16.3,7.634-28.969,18.64S773.12,123.811,773.12,123.811Zm-3.1,47.634s69.575-80.9,75.527-71.451,14.484,28.995,14.484,28.995-4.4,22.132-44.488,80.772-50.7,74.558-50.7,74.558,0.916-51.54,1.035-67.309A304.375,304.375,0,0,1,770.016,171.445Zm-15.519,17.6s0.256,53.715,0,62.132,1.034,42.457,1.034,42.457-58.2,76.5-86.907,112.873S505.156,618.795,505.156,618.795,633.7,390.328,640.69,368.2s0-18.639,0-18.639,27.673-44.661,41.384-64.2S754.5,189.049,754.5,189.049Z"/>
</svg>
